<svg width="318" height="318" viewBox="0 0 318 318" fill="none" xmlns="http://www.w3.org/2000/svg">
  <path d="M274.1 35.5L174.6 109.4L193.6 65.8L274.1 35.5Z" fill="#E2761B" stroke="#E2761B" stroke-width="0.25" stroke-linecap="round" stroke-linejoin="round"/>
  <path d="M44.4 35.5L143.1 110.1L125 65.8L44.4 35.5Z" fill="#E4761B" stroke="#E4761B" stroke-width="0.25" stroke-linecap="round" stroke-linejoin="round"/>
  <path d="M238.3 206.8L211.8 247.4L268.5 263L284.8 207.7L238.3 206.8Z" fill="#E4761B" stroke="#E4761B" stroke-width="0.25" stroke-linecap="round" stroke-linejoin="round"/>
  <path d="M33.9 207.7L50.1 263L106.8 247.4L80.3 206.8L33.9 207.7Z" fill="#E4761B" stroke="#E4761B" stroke-width="0.25" stroke-linecap="round" stroke-linejoin="round"/>
  <path d="M103.6 152.5L87.5 180.9L143.8 183.9L142.1 123.3L103.6 152.5Z" fill="#E4761B" stroke="#E4761B" stroke-width="0.25" stroke-linecap="round" stroke-linejoin="round"/>
  <path d="M214.9 152.5L175.9 122.6L174.6 183.9L230.8 180.9L214.9 152.5Z" fill="#E4761B" stroke="#E4761B" stroke-width="0.25" stroke-linecap="round" stroke-linejoin="round"/>
  <path d="M106.8 247.4L140.6 230.9L111.4 208.1L106.8 247.4Z" fill="#E4761B" stroke="#E4761B" stroke-width="0.25" stroke-linecap="round" stroke-linejoin="round"/>
  <path d="M177.9 230.9L211.8 247.4L207.1 208.1L177.9 230.9Z" fill="#E4761B" stroke="#E4761B" stroke-width="0.25" stroke-linecap="round" stroke-linejoin="round"/>
  <path d="M211.8 247.4L177.9 230.9L180.6 253L180.3 262.3L211.8 247.4Z" fill="#D7C1B3" stroke="#D7C1B3" stroke-width="0.25" stroke-linecap="round" stroke-linejoin="round"/>
  <path d="M106.8 247.4L138.3 262.3L138.1 253L140.6 230.9L106.8 247.4Z" fill="#D7C1B3" stroke="#D7C1B3" stroke-width="0.25" stroke-linecap="round" stroke-linejoin="round"/>
  <path d="M138.8 193.5L110.6 185.2L130.5 176.1L138.8 193.5Z" fill="#233447" stroke="#233447" stroke-width="0.25" stroke-linecap="round" stroke-linejoin="round"/>
  <path d="M179.7 193.5L188 176.1L208 185.2L179.7 193.5Z" fill="#233447" stroke="#233447" stroke-width="0.25" stroke-linecap="round" stroke-linejoin="round"/>
  <path d="M106.8 247.4L111.6 206.8L80.3 207.7L106.8 247.4Z" fill="#CD6116" stroke="#CD6116" stroke-width="0.25" stroke-linecap="round" stroke-linejoin="round"/>
  <path d="M206.9 206.8L211.8 247.4L238.3 207.7L206.9 206.8Z" fill="#CD6116" stroke="#CD6116" stroke-width="0.25" stroke-linecap="round" stroke-linejoin="round"/>
  <path d="M230.8 180.9L174.6 183.9L179.8 193.5L188.1 176.1L208.1 185.2L230.8 180.9Z" fill="#CD6116" stroke="#CD6116" stroke-width="0.25" stroke-linecap="round" stroke-linejoin="round"/>
  <path d="M110.6 185.2L130.6 176.1L138.8 193.5L144.1 183.9L87.8 180.9L110.6 185.2Z" fill="#CD6116" stroke="#CD6116" stroke-width="0.25" stroke-linecap="round" stroke-linejoin="round"/>
  <path d="M87.8 180.9L111.4 208.1L110.6 185.2L87.8 180.9Z" fill="#E4751F" stroke="#E4751F" stroke-width="0.25" stroke-linecap="round" stroke-linejoin="round"/>
  <path d="M208.1 185.2L207.1 208.1L230.8 180.9L208.1 185.2Z" fill="#E4751F" stroke="#E4751F" stroke-width="0.25" stroke-linecap="round" stroke-linejoin="round"/>
  <path d="M144.1 183.9L138.8 193.5L145.4 227.6L146.9 182.5L144.1 183.9Z" fill="#E4751F" stroke="#E4751F" stroke-width="0.25" stroke-linecap="round" stroke-linejoin="round"/>
  <path d="M174.6 183.9L171.9 182.4L173.1 227.6L179.8 193.5L174.6 183.9Z" fill="#E4751F" stroke="#E4751F" stroke-width="0.25" stroke-linecap="round" stroke-linejoin="round"/>
  <path d="M179.8 193.5L173.1 227.6L177.9 230.9L207.1 208.1L208.1 185.2L179.8 193.5Z" fill="#F6851B" stroke="#F6851B" stroke-width="0.25" stroke-linecap="round" stroke-linejoin="round"/>
  <path d="M110.6 185.2L111.4 208.1L140.6 230.9L145.4 227.6L138.8 193.5L110.6 185.2Z" fill="#F6851B" stroke="#F6851B" stroke-width="0.25" stroke-linecap="round" stroke-linejoin="round"/>
  <path d="M180.3 262.3L180.6 253L178.1 250.8H140.4L138.1 253L138.3 262.3L106.8 247.4L117.6 256.4L140.1 271.9H178.4L200.9 256.4L211.8 247.4L180.3 262.3Z" fill="#C0AD9E" stroke="#C0AD9E" stroke-width="0.25" stroke-linecap="round" stroke-linejoin="round"/>
  <path d="M177.9 230.9L173.1 227.6H145.4L140.6 230.9L138.1 253L140.4 250.8H178.1L180.6 253L177.9 230.9Z" fill="#161616" stroke="#161616" stroke-width="0.25" stroke-linecap="round" stroke-linejoin="round"/>
  <path d="M278.3 114.2L286.8 73.4L274.1 35.5L177.9 106.9L214.9 152.5L267.2 170.4L278.8 153L273.8 149.7L281.8 139.4L275.6 136.1L283.6 127.5L278.3 114.2Z" fill="#763D16" stroke="#763D16" stroke-width="0.25" stroke-linecap="round" stroke-linejoin="round"/>
  <path d="M31.8 73.4L40.3 114.2L34.9 127.5L42.9 136.1L36.8 139.4L44.8 149.7L39.8 153L51.3 170.4L103.6 152.5L140.6 106.9L44.4 35.5L31.8 73.4Z" fill="#763D16" stroke="#763D16" stroke-width="0.25" stroke-linecap="round" stroke-linejoin="round"/>
  <path d="M267.2 170.4L214.9 152.5L230.8 180.9L207.1 208.1L238.3 207.7H284.8L267.2 170.4Z" fill="#F6851B" stroke="#F6851B" stroke-width="0.25" stroke-linecap="round" stroke-linejoin="round"/>
  <path d="M103.6 152.5L51.3 170.4L33.9 207.7H80.3L111.4 208.1L87.8 180.9L103.6 152.5Z" fill="#F6851B" stroke="#F6851B" stroke-width="0.25" stroke-linecap="round" stroke-linejoin="round"/>
  <path d="M174.6 183.9L177.9 106.9L193.6 65.8H125L140.6 106.9L144.1 183.9L145.3 197.7L145.4 227.6H173.1L173.2 197.7L174.6 183.9Z" fill="#F6851B" stroke="#F6851B" stroke-width="0.25" stroke-linecap="round" stroke-linejoin="round"/>
</svg> 